<svg width="200" height="200" viewBox="0 0 200 200" xmlns="http://www.w3.org/2000/svg">
  <!-- 背景圆 -->
  <circle cx="100" cy="100" r="90" fill="#f0f8ff" stroke="#e1f0ff" stroke-width="2"/>
  
  <!-- 建筑物主体 -->
  <rect x="60" y="80" width="80" height="80" fill="#667eea" rx="8"/>
  
  <!-- 屋顶 -->
  <polygon points="50,80 100,50 150,80" fill="#5a6fd8"/>
  
  <!-- 门 -->
  <rect x="85" y="120" width="30" height="40" fill="#4a5bc4" rx="4"/>
  <circle cx="110" cy="140" r="2" fill="#ffffff"/>
  
  <!-- 窗户 -->
  <rect x="65" y="90" width="15" height="15" fill="#ffffff" rx="2"/>
  <rect x="120" y="90" width="15" height="15" fill="#ffffff" rx="2"/>
  <rect x="65" y="110" width="15" height="15" fill="#ffffff" rx="2"/>
  <rect x="120" y="110" width="15" height="15" fill="#ffffff" rx="2"/>
  
  <!-- 十字标志 -->
  <rect x="95" y="60" width="10" height="4" fill="#ff6b35"/>
  <rect x="98" y="57" width="4" height="10" fill="#ff6b35"/>
  
  <!-- 装饰性元素 -->
  <circle cx="40" cy="60" r="3" fill="#ffd700" opacity="0.7"/>
  <circle cx="160" cy="70" r="2" fill="#ffd700" opacity="0.7"/>
  <circle cx="170" cy="120" r="2.5" fill="#ffd700" opacity="0.7"/>
  <circle cx="30" cy="130" r="2" fill="#ffd700" opacity="0.7"/>
</svg>